<svg width="16" height="20" viewBox="0 0 16 20" fill="none" xmlns="http://www.w3.org/2000/svg">
<path fill-rule="evenodd" clip-rule="evenodd" d="M0.998849 18.0001C0.294592 18.0001 -0.176415 17.298 0.0586291 16.6587L0.104422 16.5529L1.25984 14.2421C1.69723 13.3673 1.94592 12.4117 1.99128 11.4371L1.99885 11.1116L1.99885 8.00012C1.99885 5.02706 4.16123 2.55905 6.99904 2.08305L6.99885 1.00012C6.99885 0.447837 7.44656 0.00012207 7.99885 0.00012207C8.55113 0.00012207 8.99885 0.447837 8.99885 1.00012L8.99966 2.08322C11.7582 2.54639 13.8782 4.89185 13.9939 7.7536L13.9988 8.00012L13.9988 11.1116C13.9988 12.0896 14.2038 13.0556 14.5991 13.9476L14.7379 14.2421L15.8933 16.5529C16.2082 17.1828 15.7909 17.9181 15.114 17.9938L14.9988 18.0001H9.99885C9.99885 19.1047 9.10342 20.0001 7.99885 20.0001C6.89428 20.0001 5.99885 19.1047 5.99885 18.0001H0.998849ZM8.00033 4.00004C5.85813 4.00004 4.10925 5.68401 4.00523 7.80041L4.00033 8.00005V11.1115C4.00033 12.3923 3.72698 13.6569 3.20013 14.8214L3.05017 15.1364L2.61836 16H13.3823L12.9505 15.1364C12.3777 13.9909 12.0566 12.7375 12.0071 11.4603L12.0003 11.1115L12.0003 8.00005C12.0003 5.79091 10.2095 4.00004 8.00033 4.00004Z" fill="#0C0E10"/>
</svg>
